<?xml version="1.0" encoding="UTF-8"?>
<svg id="_レイヤー_2" data-name="レイヤー 2" xmlns="http://www.w3.org/2000/svg" viewBox="0 0 306.25 438.17">
  <defs>
    <style>
      .cls-1 {
        fill: #df2059;
      }
    </style>
  </defs>
  <g id="_レイヤー_1-2" data-name="レイヤー 1">
    <g>
      <path class="cls-1" d="M180.09,2.45c-16.89,18.37-35.17,35.76-53.53,52.63,0,0,5.52-9.02,5.52-9.02-.25,13.11-.77,27.5-1.43,40.62,0,0-3.23-13.11-3.23-13.11,18.87,21.16,38.98,45.29,56.83,67.42,0,0-2.67-3.1-2.67-3.1l5.76,5.08c18.99,16.93,40.49,37.11,59.16,54.56-20.55,20.55-43.63,43.51-64.81,63.25,0,0-15.22,14.26-15.22,14.26l5.48-7.41c-1.79,3.57-3.69,7.09-5.55,10.63-5.24,9.81-11.56,22.07-16.94,31.74,0,0-9.62-33.31-9.62-33.31,20.1,13.13,42.7,28.47,62.3,42.37,0,0,26,18.29,26,18.29-4.94,3.55-25.68,18.49-30.23,21.76-15.27,10.7-33.12,23.14-48.73,33.3,0,0-.56-24.35-.56-24.35,9.69,9.14,20.39,19.55,29.76,29.02,5.57,5.58,12.4,12.68,17.92,18.37-10.59,6.13-22.12,12.69-32.99,18.34-2.06,1.08-6.38,3.37-8.49,4.37,0,0-1.87-2.34-1.87-2.34l29.03-23.67s.04,2.92.04,2.92c-15.49-11.5-31.04-22.94-46.47-34.52,0,0,2.24-1.88,2.24-1.88l51.45-43.16s.32,4.32.32,4.32c-16.08-9.68-48.41-29.09-64.45-38.82,0,0-2.25-1.36-2.25-1.36,0,0,1.18-2.36,1.18-2.36l21.37-42.93s.23-.46.23-.46c15.22-14.55,45.54-43.39,60.84-57.86,0,0-.03,4.19-.03,4.19,0,0-43.8-42.97-43.8-42.97,0,0-.17-.17-.17-.17l-.14-.19c-15.23-21.11-36.62-50.79-51.95-72.2,0,0,.15-.96.15-.96,0,0,6.08-39.94,6.08-39.94,0,0,.14-.94.14-.94,0,0,.76-.53.76-.53,0,0,60.84-42.33,60.84-42.33l1.74,2.45h0Z"/>
      <path class="cls-1" d="M147.28,256.98c-17.48,7.3-34.86,7.41-51.21.07-8.03-3.32-17.2-11.71-23.96-17.17,0,0-.76-5.76-.76-5.76-2.01-15.54,2.22-31.87,11.87-45.27,0,0,2.87-.88,2.87-.88,1.23,3.09,2.34,6.22,3.5,9.33,3.26,9,6.64,19.1,9.53,28.28,0,0-1.34-1.67-1.34-1.67,12.52,6.85,26.33,14.94,38.47,22.43,4.22,2.6,8.39,5.28,12.51,8.03,0,0-1.48,2.61-1.48,2.61h0Z"/>
      <path class="cls-1" d="M135.01,115.15c-15.76-34.35,3.47-57.43,40.12-48.59,0,0,2.31,1.91,2.31,1.91-4.33,6.64-9.06,12.92-13.95,19.12-4.58,5.72-10.33,12.67-15.24,18.06-3.49,3.92-7.14,7.72-10.93,11.4,0,0-2.31-1.91-2.31-1.91h0Z"/>
      <path class="cls-1" d="M164.29,156.73c-17.24,10.74-37.9,14.54-57.66,13.09-8.69-.53-17.93-2.81-26.36-4.89,0,0-4.92-5.25-4.92-5.25-13.25-14.09-22.73-31.57-26.47-50.85-.76-4.3-1.34-8.19-1.36-12.95,0,0,2.12-2.12,2.12-2.12,15.57,14.01,31.94,30.03,46.86,44.78,0,0-1.49-.81-1.49-.81,16.92,3.49,35.6,7.64,52.5,11.66,5.02,1.27,12.44,3.05,17.39,4.4,0,0-.61,2.94-.61,2.94h0Z"/>
      <path class="cls-1" d="M207.23,197.3c-2.09-26,6.71-52.28,20.09-73.83,0,0-4.73,15.21-4.73,15.21-.47-10.28.08-20.52,1.71-30.71,1.71-10.51,4.52-20.73,8.75-30.71,0,0,6.85,13.32,6.85,13.32-.55-.89-2.08-3.56-2.62-4.45-3.84-7.11-7.21-14.33-9.21-22.27,0,0,1.74-2.44,1.74-2.44,3.53,2.27,7.03,4.59,10.52,6.92,3.52,2.31,7.98,5.32,11.4,7.66,0,0,.03,1.26.03,1.26.15,9.11.52,21.74.49,30.71.02,9.12.23,22.63.11,31.65-10.08,14.47-21.49,30.75-31.87,44.9-3.59,4.83-7.13,9.7-10.79,14.48l-2.47-1.7h0Z"/>
      <path class="cls-1" d="M226.67,172.13c25.68-4.71,51.65,6.24,63.53,29.76,0,0,16.05,31.41,16.05,31.41,0,0-18.71,5.23-18.71,5.23-7.77,2.27-17.55,2.81-26.07,1.48-3.69-.58-7.16-1.28-10.89-2.61,0,0-1.73-2.45-1.73-2.45,5.47-4.54,11.72-9.38,17.43-13.68,1.97-1.48,3.89-3.01,5.9-4.43l-.31,4.29c-11.86-10.95-24.69-23.17-35.84-34.7-3.78-3.84-7.82-8.14-11.42-12.13,0,0,2.07-2.17,2.07-2.17h0Z"/>
      <path class="cls-1" d="M168.18,238.46c2.11-35.96,23.08-41.83,43.87-12.5,0,0,.82,2.89.82,2.89-5.23,2.42-10.6,4.31-16.06,6.05-9,2.75-18.46,5.29-27.81,6.45,0,0-.82-2.89-.82-2.89h0Z"/>
      <path class="cls-1" d="M169.18,325.89c-15.17,12.01-34.32,19.15-52.84,22.75,0,0,8.98-1.73,8.98-1.73-11.48,7.33-23.66,12.93-36.39,17.12-6.37,2.08-12.9,3.78-19.59,5.06-14.01,3.17-54.5,3.59-69.33,4.59,4.68-5.02,26.11-28.93,30.64-33.06,6.77-6.48,14.01-12.32,22.41-16.81,0,0,2.76,1.18,2.76,1.18-3.74,9.95-7.77,20.26-11.78,30.13,0,0-3.19-3.26-3.19-3.26,5.32-2.22,13.25-5.64,18.52-7.74,17.31-7.11,39-15.77,56.44-22.51,7.93-.03,18.93.33,26.95.45,8.81.18,17.62.48,26.42.86,0,0,0,3,0,3h0Z"/>
    </g>
  </g>
</svg>