<?xml version="1.0" encoding="UTF-8"?>
<svg id="_レイヤー_2" data-name="レイヤー 2" xmlns="http://www.w3.org/2000/svg" viewBox="0 0 287.99 438.17">
  <defs>
    <style>
      .cls-1 {
        fill: #df2059;
      }
    </style>
  </defs>
  <g id="_レイヤー_1-2" data-name="レイヤー 1">
    <g>
      <path class="cls-1" d="M168.32,438.17c-24.27-10.3-47.23-23.26-69.66-37.03-3.6-16.4-7.07-33.63-9.77-50.17,9.35-13.68,18.95-27.21,29.76-39.79,8.21-9.61,20.99-23.31,29.76-32.74,0,0,.84-.97.84-.97l6.07-4.76c14.04-11.1,27.43-23.17,39.86-36.02,0,0,.05,6.69.05,6.69-2.57-2.34-5.16-4.67-7.79-6.94-18.35-16.13-38.25-30.43-57.36-45.63,0,0-.75-.6-.75-.6-2.64-4.23-5.28-8.6-7.82-12.88-6.12-10.33-11.86-20.88-17.7-31.37,0,0-6.09-10.93-6.09-10.93,0,0,11.44-7.62,11.44-7.62,15.21-10.04,31.84-21.35,47.29-30.84,5.32-3.31,10.7-6.53,16.1-9.72,0,0-1.94,26.1-1.94,26.1-12.32-10.55-25.59-22.55-37.49-33.7-7.31-6.84-17.33-16.57-24.53-23.66,0,0,12.8-8.24,12.8-8.24,15.42-9.95,31.24-19.68,47.18-28.77,0,0-.16,11.78-.16,11.78-8.76-9.09-17.4-18.36-25.52-28.05,0,0,1.87-2.34,1.87-2.34,5.65,2.89,11.19,5.97,16.69,9.11,7.73,4.33,15.93,9.46,23.53,14.07,0,0-7.42,7.34-7.42,7.34-13.1,12.84-26.78,25.42-40.56,37.52,0,0,.47-20.29.47-20.29,7.85,5.54,19.3,14.02,27.15,19.87,14.02,10.32,30.26,23.72,43.99,34.68,0,0-19.41,12.05-19.41,12.05-20.93,13.13-43.56,25.54-65.29,37.43,0,0,5.36-18.55,5.36-18.55,6.55,14.61,13.16,29.2,18.98,44.13,0,0-2.35-3.18-2.35-3.18,4.61,5.24,9.15,10.56,13.69,15.87,13.52,15.98,27.14,31.89,42.04,46.6,0,0,3.52,3.51,3.52,3.51,0,0-3.47,3.18-3.47,3.18-15.01,13.86-28.99,29.08-41.8,45.01,0,0,.84-.97.84-.97l-10.79,19.34c-10.6,19.36-22.72,37.78-36.28,55.17,0,0,2.39-9.73,2.39-9.73,1.59,13.01,2.99,27.14,3.95,40.25,0,0-4.67-7.63-4.67-7.63,4.79,3.93,9.53,7.93,14.21,12,9.43,8.14,18.59,16.55,27.49,25.3,4.43,4.42,8.84,8.88,13.04,13.64,0,0-1.74,2.45-1.74,2.45h0Z"/>
      <path class="cls-1" d="M138.73,183.81c-.75,7.74-4.3,14.93-10.3,19.47-3.25,2.82-7.6,2.63-11.71,1.92-10.81-2.19-14.79,2.01-19.11,11.44-1.34,2.66-2.83,5.05-4.66,6.83l6.24-7.76c-.15,3.42-.08,6.91-.58,10.23-1.83,10.69-12.16,20.09-22.56,24.27,0,0-2.87-.88-2.87-.88-6.26-9.34-9.51-22.84-5.01-32.76,2.54-4.93,6.92-11.19,9.78-16.09,0,0,1.73-.46,1.73-.46,6.36-1.86,14.39,1.53,20.54-1.38,6.96-2.8,6.63-12.3,11.81-16.81,7.3-5.05,17.17-4.4,25.22-.64,0,0,1.48,2.61,1.48,2.61h0Z"/>
      <path class="cls-1" d="M127.29,321.11c6.26-1.58,11.81-1.98,16.68,1.55,6.39,4.95-6.97,17.54,8.56,18.47,1.82.13,3.72.2,5.48.58,3.01.77,5.29,2.3,7.84,3.74,7.01,4.83,4.66,17.19,1.56,24.25,0,0-2.31,1.91-2.31,1.91-7.46,1.52-15.28,1.6-21.24-2.89-2.14-1.81-2.82-4.63-3.58-7.26-.39-1.38-.89-2.67-.88-4.38-.13-3.29,1.21-7.49.41-10.55-1.39-5.78-8.64-3.26-13.3-4.34-3.21-.79-3.9-3.69-4.38-6.6-.31-4.32.62-7.92,2.85-12.57,0,0,2.31-1.91,2.31-1.91h0Z"/>
      <path class="cls-1" d="M154.87,284.38c-5.5,8.63-14.29,14.54-23.88,17.2-13.6,3.61-21.12-9.34-36.65-.13-2.72,1.6-5.32,3.76-7.95,5.77l4.98-2.69c-.99,2.83-2.11,5.53-3.52,7.94-2.99,4.6-5.93,9.3-9.37,13.54-7.36,8.6-17.89,13.88-28.94,16.88-3.06.76-6.26,1.38-9.94,1.52,0,0-2.12-2.12-2.12-2.12.31-6.76,2-12.61,4.38-18.53,3.41-7.92,7.57-14.92,14.02-20.34,4.25-3.44,8.94-6.38,13.54-9.37,2.41-1.41,5.11-2.53,7.94-3.52l4.98-2.69c9.44,2.75,18.85,4.17,26.89-2.76,4.87-4.04,9.76-9.26,16.25-9.87,6.23-.87,12.38-.48,18.61,1.42,3.57,1.14,6.87,2.54,10.16,4.81,0,0,.61,2.94.61,2.94h0Z"/>
      <path class="cls-1" d="M199.67,239.17c12.29,3.14,24,12.29,30.19,23.04,2.9,5.56,2.98,12.78,4.46,18.84,1.51,6.37,5.11,11.3,9.91,15.4,1.33,6.3,4.43,12.27,6.64,18.39,1.89,5.12,2.35,10.24,3.31,15.35.87,5.12,1.56,10.24,1.28,15.35-.26,7.98-3.18,17.38-5.2,25.2-9.73,3.78-19.87,6.46-30.48,6,0,0-1.74-2.44-1.74-2.44,2.72-9.12,7.63-17.1,13.51-24.38,0,0-5.65,10.97-5.65,10.97-2.9-10.18-3.42-20.37-1.32-30.71.96-5.12,1.43-10.24,3.31-15.35,1.76-5.12,4.49-10.24,5.84-15.35l1,3.21c-2.12-5.85-5.43-10.87-10.76-14.51-5.14-3.54-11.86-6.19-16.01-10.89-4-4.64-6.49-10.26-8.51-16.06-2.03-6.59-3.13-13.03-2.24-20.37,0,0,2.47-1.7,2.47-1.7h0Z"/>
      <path class="cls-1" d="M214.57,263.87c-1.19-7.02.09-14.34,4-19.9,1.66-2.47,3.72-4.29,6.79-4.93,4.54-1.08,10.34-.21,14.18-3.2,6.25-4.63,4.58-15,8.76-20.94,1.49-2.46,2.86-5.03,4.53-7.3l1.77,24.36c-2.27-1.05-4.26-2.5-5.98-4.32-6.06-6.76-9.28-14.86-9.82-24.42,0,0,1.73-2.45,1.73-2.45,9.2-2.67,17.91-2.3,26.3,1.17,2.29,1.02,4.31,2.42,6.06,4.21,0,0,15.1,15.49,15.1,15.49-5.09,3.35-15.42,10.59-20.83,13.05-2.46,1.44-5.52,2.24-8.88,2.74-3.35.5-6.72.98-9.2,2.4-2.63,1.44-4.42,3.54-5.28,6.51-1.67,6.2-.45,13.11-7.1,16.65-5.74,3.64-13.11,4.57-20.07,3.05,0,0-2.07-2.17-2.07-2.17h0Z"/>
      <path class="cls-1" d="M158.97,196.83c3.14-4.42,6.58-8.72,11.48-9.07,1-.06,1.87.37,2.51,1.6,1.29,2.41,1.8,7.57,3.37,8.96,2.81,2.36,5.96-1.59,8.35-3.28.5-.38,1.33-1.06,1.87-1.34,1.21-.79,2.25-.95,3.32-1.24,1.98-.51,4.13-1.28,5.99-.23,2.01,1.19,3.27,3.28,4.34,5.59,1.52,3.56,2.28,6.96,2.65,11.52,0,0-.82,2.89-.82,2.89-3.78,4.98-8.93,10.58-14.95,10.86-2.13-.09-3.56-1.87-4.97-3.35-.98-.93-2.07-2.27-2.62-3.8-1.25-2.68-1.99-9.02-5.78-8.32-2.08.35-5.23,4.47-7.59,5.84-1.19.71-2.15.61-2.97.04-3.97-2.86-4.63-8.37-4.97-13.76,0,0,.82-2.89.82-2.89h0Z"/>
      <path class="cls-1" d="M159.15,115.28c-9.91,8.49-27.15,13.65-39.63,11.45-4.4-.88-8.81-3.23-13.21-5.2l-2.87-.55c-2.54-2.65-5.23-4.94-8.19-6.55-2.96-1.61-6.14-2.66-9.48-3.33-6.75-1.36-14.35-.36-21.21-1.01-3.05-.17-7.1-1.15-10.09-1.8-6.58-1.44-13.24-2.79-19.38-5.6-3.06-1.36-5.99-3.04-8.87-4.86,0,0,19.17-19.62,19.17-19.62,2.42,11.51,3.15,23.31.39,34.98,0,0-2.76,1.18-2.76,1.18-2.97-1.66-5.46-3.53-7.84-5.45-4.55-3.74-8.58-7.87-12.21-12.37-3.84-4.49-19.34-28.45-22.98-33.66,0,0,37.23,7.35,37.23,7.35,6.67,1.25,13.02,3.38,18.94,6.7,4.26,2.35,8.9,5.26,13.11,7.78,4.49,2.81,8.28,6.47,12.14,10.2,7.54,7.61,16.79,12.6,27.77,11.66,0,0-2.87-.55-2.87-.55,4.4-1.97,8.81-4.31,13.21-5.2,12.5-2.19,29.7,2.96,39.63,11.45,0,0,0,3,0,3h0Z"/>
    </g>
  </g>
</svg>